<?xml version="1.0" standalone="no"?><svg xmlns="http://www.w3.org/2000/svg" viewBox="0 0 1440 320"><path fill="#33333" fill-opacity="0.7" d="M0,96L34.3,85.3C68.6,75,137,53,206,69.3C274.3,85,343,139,411,165.3C480,192,549,192,617,208C685.7,224,754,256,823,272C891.4,288,960,288,1029,266.7C1097.1,245,1166,203,1234,186.7C1302.9,171,1371,181,1406,186.7L1440,192L1440,320L1405.7,320C1371.4,320,1303,320,1234,320C1165.7,320,1097,320,1029,320C960,320,891,320,823,320C754.3,320,686,320,617,320C548.6,320,480,320,411,320C342.9,320,274,320,206,320C137.1,320,69,320,34,320L0,320Z"></path></svg>